# xmcd CD database file
#
# Track frame offsets:
#	150
#	17662
#	34822
#	55672
#	71577
#	88275
#	104700
#	124627
#	147892
#	168592
#	185402
#
# Disc length: 2733 seconds
#
# Revision: 3
# Processed by: cddbd v1.5.2PL0 Copyright (c) Steve Scherf et al.
# Submitted via: CDex 1.81
#
DISCID=9a0aab0b
DTITLE=Jill Colucci - No Regrets
DYEAR=1994
DGENRE=Country
TTITLE0=Anymore
TTITLE1=Whatever It Takes
TTITLE2=Chains On The Wind
TTITLE3=Willing To Walk Through The Fire
TTITLE4=You Got It All Wrong
TTITLE5=I Didn't Mean To Love You
TTITLE6=Stay By Me
TTITLE7=Drive On
TTITLE8=No One Else On Earth
TTITLE9=He Would Be Sixteen
TTITLE10=No Regrets
EXTD=YEAR: 1994
EXTT0=
EXTT1=
EXTT2=
EXTT3=
EXTT4=
EXTT5=
EXTT6=
EXTT7=
EXTT8=
EXTT9=
EXTT10=
PLAYORDER=
